# xmcd
# 
# Track frame offsets:
#     150
#     2710
#     17317
#     31927
#     43712
#     55500
#     69040
#     82580
#     96337
#     110092
#     121467
#     132842
#     145200
#     157557
#     173232
#     188892
#     203732
# 
# Disc length: 2916
# 
# Revision: 0
# Processed by: cddbd v1.5.2PL0 Copyright (c) Steve Scherf et al.
# Submitted via: fre:ac v1.0.31
# 
DISCID=c90b6211
DTITLE=Blues Brothers - Take The Lead (tenorsaxophone)
DYEAR=1999
DGENRE=Blues
TTITLE0=Tuning Tones
TTITLE1=She Caught The Katy And Left Me A Mule To Ride
TTITLE2=She Caught The Katy And Left Me A Mule To Ride (Backing Track)
TTITLE3=Gimme Some Lovin'
TTITLE4=Gimme Some Lovin' (Backing Track)
TTITLE5=Shake A Tailfeather
TTITLE6=Shake A Tailfeather (Backing Track)
TTITLE7=Everybody Needs Somebody To Love
TTITLE8=Everybody Needs Somebody To Love (Backing Track)
TTITLE9=The Old Landmark
TTITLE10=The Old Landmark (Backing Track)
TTITLE11=Think
TTITLE12=Think (Backing Track)
TTITLE13=Minnie The Moocher
TTITLE14=Minnie The Moocher (Backing Track)
TTITLE15=Sweet Home Chicago
TTITLE16=Sweet Home Chicago (Backing Track)
EXTD=
EXTT0=
EXTT1=
EXTT2=
EXTT3=
EXTT4=
EXTT5=
EXTT6=
EXTT7=
EXTT8=
EXTT9=
EXTT10=
EXTT11=
EXTT12=
EXTT13=
EXTT14=
EXTT15=
EXTT16=
PLAYORDER=
